{
	"asset":{
		"generator":"Khronos glTF Blender I/O v4.4.56",
		"version":"2.0"
	},
	"scene":0,
	"scenes":[
		{
			"name":"Scene",
			"nodes":[
				0,
				1
			]
		}
	],
	"nodes":[
		{
			"mesh":0,
			"name":"CornerFrameMesh"
		},
		{
			"mesh":1,
			"name":"CornerFacesMesh"
		}
	],
	"materials":[
		{
			"name":"Frames",
			"pbrMetallicRoughness":{
				"baseColorFactor":[
					0.04666478559374809,
					0.04666513204574585,
					0.04666511341929436,
					1
				],
				"metallicFactor":0
			}
		},
		{
			"emissiveFactor":[
				0.2122296243906021,
				0.043735072016716,
				0
			],
			"name":"Faces",
			"pbrMetallicRoughness":{
				"baseColorFactor":[
					0,
					0,
					0,
					1
				]
			}
		}
	],
	"meshes":[
		{
			"name":"CornerFrameMesh",
			"primitives":[
				{
					"attributes":{
						"POSITION":0,
						"NORMAL":1
					},
					"indices":2,
					"material":0
				}
			]
		},
		{
			"name":"CornerFacesMesh",
			"primitives":[
				{
					"attributes":{
						"POSITION":3,
						"NORMAL":4
					},
					"indices":5,
					"material":1
				}
			]
		}
	],
	"accessors":[
		{
			"bufferView":0,
			"componentType":5126,
			"count":80,
			"max":[
				0,
				1,
				0.5
			],
			"min":[
				-0.5,
				0,
				0
			],
			"type":"VEC3"
		},
		{
			"bufferView":1,
			"componentType":5126,
			"count":80,
			"type":"VEC3"
		},
		{
			"bufferView":2,
			"componentType":5123,
			"count":132,
			"type":"SCALAR"
		},
		{
			"bufferView":3,
			"componentType":5126,
			"count":12,
			"max":[
				0,
				0.965133011341095,
				0.4564162790775299
			],
			"min":[
				-0.4564162790775299,
				0.21688026189804077,
				0
			],
			"type":"VEC3"
		},
		{
			"bufferView":4,
			"componentType":5126,
			"count":12,
			"type":"VEC3"
		},
		{
			"bufferView":5,
			"componentType":5123,
			"count":18,
			"type":"SCALAR"
		}
	],
	"bufferViews":[
		{
			"buffer":0,
			"byteLength":960,
			"byteOffset":0,
			"target":34962
		},
		{
			"buffer":0,
			"byteLength":960,
			"byteOffset":960,
			"target":34962
		},
		{
			"buffer":0,
			"byteLength":264,
			"byteOffset":1920,
			"target":34963
		},
		{
			"buffer":0,
			"byteLength":144,
			"byteOffset":2184,
			"target":34962
		},
		{
			"buffer":0,
			"byteLength":144,
			"byteOffset":2328,
			"target":34962
		},
		{
			"buffer":0,
			"byteLength":36,
			"byteOffset":2472,
			"target":34963
		}
	],
	"buffers":[
		{
			"byteLength":2508,
			"uri":"data:application/octet-stream;base64,"
		}
	]
}
