{
	"asset":{
		"generator":"Khronos glTF Blender I/O v4.4.56",
		"version":"2.0"
	},
	"scene":0,
	"scenes":[
		{
			"name":"Scene",
			"nodes":[
				0,
				1
			]
		}
	],
	"nodes":[
		{
			"mesh":0,
			"name":"LightMesh"
		},
		{
			"mesh":1,
			"name":"LightFrameMesh"
		}
	],
	"materials":[
		{
			"emissiveFactor":[
				1,
				0,
				0
			],
			"name":"Light",
			"pbrMetallicRoughness":{
				"baseColorFactor":[
					0,
					0,
					0,
					1
				]
			}
		},
		{
			"name":"Frames",
			"pbrMetallicRoughness":{
				"baseColorFactor":[
					0.04666478559374809,
					0.04666513204574585,
					0.04666511341929436,
					1
				],
				"metallicFactor":0
			}
		}
	],
	"meshes":[
		{
			"name":"LightMesh",
			"primitives":[
				{
					"attributes":{
						"POSITION":0,
						"NORMAL":1
					},
					"indices":2,
					"material":0
				}
			]
		},
		{
			"name":"LightFrameMesh",
			"primitives":[
				{
					"attributes":{
						"POSITION":3,
						"NORMAL":4
					},
					"indices":5,
					"material":1
				}
			]
		}
	],
	"accessors":[
		{
			"bufferView":0,
			"componentType":5126,
			"count":25,
			"max":[
				0.0936296358704567,
				1.0621647834777832,
				0.0936296358704567
			],
			"min":[
				-0.0936296358704567,
				0.9859393835067749,
				-0.0936296358704567
			],
			"type":"VEC3"
		},
		{
			"bufferView":1,
			"componentType":5126,
			"count":25,
			"type":"VEC3"
		},
		{
			"bufferView":2,
			"componentType":5123,
			"count":120,
			"type":"SCALAR"
		},
		{
			"bufferView":3,
			"componentType":5126,
			"count":24,
			"max":[
				0.11000000685453415,
				0.9871281385421753,
				0.11000000685453415
			],
			"min":[
				-0.11000000685453415,
				0.9609761238098145,
				-0.11000000685453415
			],
			"type":"VEC3"
		},
		{
			"bufferView":4,
			"componentType":5126,
			"count":24,
			"type":"VEC3"
		},
		{
			"bufferView":5,
			"componentType":5123,
			"count":96,
			"type":"SCALAR"
		}
	],
	"bufferViews":[
		{
			"buffer":0,
			"byteLength":300,
			"byteOffset":0,
			"target":34962
		},
		{
			"buffer":0,
			"byteLength":300,
			"byteOffset":300,
			"target":34962
		},
		{
			"buffer":0,
			"byteLength":240,
			"byteOffset":600,
			"target":34963
		},
		{
			"buffer":0,
			"byteLength":288,
			"byteOffset":840,
			"target":34962
		},
		{
			"buffer":0,
			"byteLength":288,
			"byteOffset":1128,
			"target":34962
		},
		{
			"buffer":0,
			"byteLength":192,
			"byteOffset":1416,
			"target":34963
		}
	],
	"buffers":[
		{
			"byteLength":1608,
			"uri":"data:application/octet-stream;base64,"
		}
	]
}
