{
	"asset":{
		"generator":"Khronos glTF Blender I/O v4.4.56",
		"version":"2.0"
	},
	"scene":0,
	"scenes":[
		{
			"name":"Scene",
			"nodes":[
				9
			]
		}
	],
	"nodes":[
		{
			"name":"HeadBone",
			"translation":[
				0,
				1.7999999523162842,
				0
			]
		},
		{
			"name":"LeftArmBone",
			"rotation":[
				-2.6914827699897614e-08,
				-4.563990074757385e-08,
				-0.21323134005069733,
				0.9770017266273499
			],
			"scale":[
				1,
				0.9999999403953552,
				1
			],
			"translation":[
				2.9802322387695312e-08,
				0.4123106300830841,
				-8.881784197001252e-15
			]
		},
		{
			"children":[
				1
			],
			"name":"LeftShoulderBone",
			"rotation":[
				-3.1334860040033163e-08,
				-2.4465517611815812e-08,
				-0.7882054448127747,
				0.6154122352600098
			],
			"scale":[
				0.9999998807907104,
				0.9999998807907104,
				1
			],
			"translation":[
				0,
				1.7999999523162842,
				0
			]
		},
		{
			"name":"RightArmBone",
			"rotation":[
				9.77078684627486e-09,
				-2.358295958515555e-08,
				0.21323134005069733,
				0.9770017266273499
			],
			"scale":[
				1,
				0.9999999403953552,
				1
			],
			"translation":[
				-3.725290298461914e-08,
				0.4123106002807617,
				2.6645352591003757e-15
			]
		},
		{
			"children":[
				3
			],
			"name":"RightShoulderBone",
			"rotation":[
				8.545872454135406e-09,
				-6.672415064912229e-09,
				0.7882054448127747,
				0.6154122948646545
			],
			"scale":[
				0.9999999403953552,
				0.9999999403953552,
				1
			],
			"translation":[
				0,
				1.7999999523162842,
				0
			]
		},
		{
			"children":[
				0,
				2,
				4
			],
			"name":"BodyBone"
		},
		{
			"name":"neutral_bone",
			"rotation":[
				-0.7071067690849304,
				0,
				0,
				0.7071067690849304
			]
		},
		{
			"mesh":0,
			"name":"Character",
			"skin":0
		},
		{
			"mesh":1,
			"name":"CharacterEyes",
			"skin":0
		},
		{
			"children":[
				7,
				8,
				5,
				6
			],
			"name":"CharacterArmature"
		}
	],
	"animations":[
		{
			"channels":[
				{
					"sampler":0,
					"target":{
						"node":5,
						"path":"translation"
					}
				},
				{
					"sampler":1,
					"target":{
						"node":5,
						"path":"rotation"
					}
				},
				{
					"sampler":2,
					"target":{
						"node":5,
						"path":"scale"
					}
				},
				{
					"sampler":3,
					"target":{
						"node":0,
						"path":"translation"
					}
				},
				{
					"sampler":4,
					"target":{
						"node":0,
						"path":"rotation"
					}
				},
				{
					"sampler":5,
					"target":{
						"node":0,
						"path":"scale"
					}
				},
				{
					"sampler":6,
					"target":{
						"node":2,
						"path":"translation"
					}
				},
				{
					"sampler":7,
					"target":{
						"node":2,
						"path":"rotation"
					}
				},
				{
					"sampler":8,
					"target":{
						"node":2,
						"path":"scale"
					}
				},
				{
					"sampler":9,
					"target":{
						"node":1,
						"path":"translation"
					}
				},
				{
					"sampler":10,
					"target":{
						"node":1,
						"path":"rotation"
					}
				},
				{
					"sampler":11,
					"target":{
						"node":1,
						"path":"scale"
					}
				},
				{
					"sampler":12,
					"target":{
						"node":4,
						"path":"translation"
					}
				},
				{
					"sampler":13,
					"target":{
						"node":4,
						"path":"rotation"
					}
				},
				{
					"sampler":14,
					"target":{
						"node":4,
						"path":"scale"
					}
				},
				{
					"sampler":15,
					"target":{
						"node":3,
						"path":"translation"
					}
				},
				{
					"sampler":16,
					"target":{
						"node":3,
						"path":"rotation"
					}
				},
				{
					"sampler":17,
					"target":{
						"node":3,
						"path":"scale"
					}
				}
			],
			"name":"Idle",
			"samplers":[
				{
					"input":11,
					"interpolation":"LINEAR",
					"output":12
				},
				{
					"input":11,
					"interpolation":"LINEAR",
					"output":13
				},
				{
					"input":11,
					"interpolation":"LINEAR",
					"output":14
				},
				{
					"input":11,
					"interpolation":"LINEAR",
					"output":15
				},
				{
					"input":11,
					"interpolation":"LINEAR",
					"output":16
				},
				{
					"input":11,
					"interpolation":"LINEAR",
					"output":17
				},
				{
					"input":11,
					"interpolation":"LINEAR",
					"output":18
				},
				{
					"input":11,
					"interpolation":"LINEAR",
					"output":19
				},
				{
					"input":11,
					"interpolation":"LINEAR",
					"output":20
				},
				{
					"input":11,
					"interpolation":"LINEAR",
					"output":21
				},
				{
					"input":11,
					"interpolation":"LINEAR",
					"output":22
				},
				{
					"input":11,
					"interpolation":"LINEAR",
					"output":23
				},
				{
					"input":11,
					"interpolation":"LINEAR",
					"output":24
				},
				{
					"input":11,
					"interpolation":"LINEAR",
					"output":25
				},
				{
					"input":11,
					"interpolation":"LINEAR",
					"output":26
				},
				{
					"input":11,
					"interpolation":"LINEAR",
					"output":27
				},
				{
					"input":11,
					"interpolation":"LINEAR",
					"output":28
				},
				{
					"input":11,
					"interpolation":"LINEAR",
					"output":29
				}
			]
		},
		{
			"channels":[
				{
					"sampler":0,
					"target":{
						"node":5,
						"path":"translation"
					}
				},
				{
					"sampler":1,
					"target":{
						"node":5,
						"path":"rotation"
					}
				},
				{
					"sampler":2,
					"target":{
						"node":5,
						"path":"scale"
					}
				},
				{
					"sampler":3,
					"target":{
						"node":0,
						"path":"translation"
					}
				},
				{
					"sampler":4,
					"target":{
						"node":0,
						"path":"rotation"
					}
				},
				{
					"sampler":5,
					"target":{
						"node":0,
						"path":"scale"
					}
				},
				{
					"sampler":6,
					"target":{
						"node":2,
						"path":"translation"
					}
				},
				{
					"sampler":7,
					"target":{
						"node":2,
						"path":"rotation"
					}
				},
				{
					"sampler":8,
					"target":{
						"node":2,
						"path":"scale"
					}
				},
				{
					"sampler":9,
					"target":{
						"node":1,
						"path":"translation"
					}
				},
				{
					"sampler":10,
					"target":{
						"node":1,
						"path":"rotation"
					}
				},
				{
					"sampler":11,
					"target":{
						"node":1,
						"path":"scale"
					}
				},
				{
					"sampler":12,
					"target":{
						"node":4,
						"path":"translation"
					}
				},
				{
					"sampler":13,
					"target":{
						"node":4,
						"path":"rotation"
					}
				},
				{
					"sampler":14,
					"target":{
						"node":4,
						"path":"scale"
					}
				},
				{
					"sampler":15,
					"target":{
						"node":3,
						"path":"translation"
					}
				},
				{
					"sampler":16,
					"target":{
						"node":3,
						"path":"rotation"
					}
				},
				{
					"sampler":17,
					"target":{
						"node":3,
						"path":"scale"
					}
				}
			],
			"name":"Move",
			"samplers":[
				{
					"input":11,
					"interpolation":"LINEAR",
					"output":30
				},
				{
					"input":11,
					"interpolation":"LINEAR",
					"output":31
				},
				{
					"input":11,
					"interpolation":"LINEAR",
					"output":32
				},
				{
					"input":11,
					"interpolation":"LINEAR",
					"output":33
				},
				{
					"input":11,
					"interpolation":"LINEAR",
					"output":34
				},
				{
					"input":11,
					"interpolation":"LINEAR",
					"output":35
				},
				{
					"input":11,
					"interpolation":"LINEAR",
					"output":36
				},
				{
					"input":11,
					"interpolation":"LINEAR",
					"output":37
				},
				{
					"input":11,
					"interpolation":"LINEAR",
					"output":38
				},
				{
					"input":11,
					"interpolation":"LINEAR",
					"output":39
				},
				{
					"input":11,
					"interpolation":"LINEAR",
					"output":40
				},
				{
					"input":11,
					"interpolation":"LINEAR",
					"output":41
				},
				{
					"input":11,
					"interpolation":"LINEAR",
					"output":42
				},
				{
					"input":11,
					"interpolation":"LINEAR",
					"output":43
				},
				{
					"input":11,
					"interpolation":"LINEAR",
					"output":44
				},
				{
					"input":11,
					"interpolation":"LINEAR",
					"output":45
				},
				{
					"input":11,
					"interpolation":"LINEAR",
					"output":46
				},
				{
					"input":11,
					"interpolation":"LINEAR",
					"output":47
				}
			]
		}
	],
	"materials":[
		{
			"name":"Character",
			"pbrMetallicRoughness":{
				"baseColorFactor":[
					1,
					1,
					1,
					1
				],
				"metallicFactor":0
			}
		},
		{
			"emissiveFactor":[
				0,
				0,
				0
			],
			"name":"Eyes",
			"pbrMetallicRoughness":{
				"baseColorFactor":[
					0,
					0,
					0,
					1
				]
			}
		}
	],
	"meshes":[
		{
			"name":"Character",
			"primitives":[
				{
					"attributes":{
						"POSITION":0,
						"NORMAL":1,
						"JOINTS_0":2,
						"WEIGHTS_0":3
					},
					"indices":4,
					"material":0
				}
			]
		},
		{
			"name":"CharacterEyes",
			"primitives":[
				{
					"attributes":{
						"POSITION":6,
						"NORMAL":7,
						"JOINTS_0":8,
						"WEIGHTS_0":9
					},
					"indices":10,
					"material":1
				}
			]
		}
	],
	"skins":[
		{
			"inverseBindMatrices":5,
			"joints":[
				5,
				0,
				2,
				1,
				4,
				3,
				6
			],
			"name":"CharacterArmature"
		}
	],
	"accessors":[
		{
			"bufferView":0,
			"componentType":5126,
			"count":223,
			"max":[
				1.548755407333374,
				3.5011508464813232,
				0.9166667461395264
			],
			"min":[
				-1.548755407333374,
				0,
				-0.9166666865348816
			],
			"type":"VEC3"
		},
		{
			"bufferView":1,
			"componentType":5126,
			"count":223,
			"type":"VEC3"
		},
		{
			"bufferView":2,
			"componentType":5121,
			"count":223,
			"type":"VEC4"
		},
		{
			"bufferView":3,
			"componentType":5126,
			"count":223,
			"type":"VEC4"
		},
		{
			"bufferView":4,
			"componentType":5123,
			"count":1248,
			"type":"SCALAR"
		},
		{
			"bufferView":5,
			"componentType":5126,
			"count":7,
			"type":"MAT4"
		},
		{
			"bufferView":6,
			"componentType":5126,
			"count":50,
			"max":[
				0.4056105613708496,
				2.789889335632324,
				0.8689749240875244
			],
			"min":[
				-0.4056105613708496,
				2.3762741088867188,
				0.7240672707557678
			],
			"type":"VEC3"
		},
		{
			"bufferView":7,
			"componentType":5126,
			"count":50,
			"type":"VEC3"
		},
		{
			"bufferView":8,
			"componentType":5121,
			"count":50,
			"type":"VEC4"
		},
		{
			"bufferView":9,
			"componentType":5126,
			"count":50,
			"type":"VEC4"
		},
		{
			"bufferView":10,
			"componentType":5123,
			"count":240,
			"type":"SCALAR"
		},
		{
			"bufferView":11,
			"componentType":5126,
			"count":5,
			"max":[
				1.6666666666666667
			],
			"min":[
				0.041666666666666664
			],
			"type":"SCALAR"
		},
		{
			"bufferView":12,
			"componentType":5126,
			"count":5,
			"type":"VEC3"
		},
		{
			"bufferView":13,
			"componentType":5126,
			"count":5,
			"type":"VEC4"
		},
		{
			"bufferView":14,
			"componentType":5126,
			"count":5,
			"type":"VEC3"
		},
		{
			"bufferView":15,
			"componentType":5126,
			"count":5,
			"type":"VEC3"
		},
		{
			"bufferView":16,
			"componentType":5126,
			"count":5,
			"type":"VEC4"
		},
		{
			"bufferView":17,
			"componentType":5126,
			"count":5,
			"type":"VEC3"
		},
		{
			"bufferView":18,
			"componentType":5126,
			"count":5,
			"type":"VEC3"
		},
		{
			"bufferView":19,
			"componentType":5126,
			"count":5,
			"type":"VEC4"
		},
		{
			"bufferView":20,
			"componentType":5126,
			"count":5,
			"type":"VEC3"
		},
		{
			"bufferView":21,
			"componentType":5126,
			"count":5,
			"type":"VEC3"
		},
		{
			"bufferView":22,
			"componentType":5126,
			"count":5,
			"type":"VEC4"
		},
		{
			"bufferView":23,
			"componentType":5126,
			"count":5,
			"type":"VEC3"
		},
		{
			"bufferView":24,
			"componentType":5126,
			"count":5,
			"type":"VEC3"
		},
		{
			"bufferView":25,
			"componentType":5126,
			"count":5,
			"type":"VEC4"
		},
		{
			"bufferView":26,
			"componentType":5126,
			"count":5,
			"type":"VEC3"
		},
		{
			"bufferView":27,
			"componentType":5126,
			"count":5,
			"type":"VEC3"
		},
		{
			"bufferView":28,
			"componentType":5126,
			"count":5,
			"type":"VEC4"
		},
		{
			"bufferView":29,
			"componentType":5126,
			"count":5,
			"type":"VEC3"
		},
		{
			"bufferView":30,
			"componentType":5126,
			"count":5,
			"type":"VEC3"
		},
		{
			"bufferView":31,
			"componentType":5126,
			"count":5,
			"type":"VEC4"
		},
		{
			"bufferView":32,
			"componentType":5126,
			"count":5,
			"type":"VEC3"
		},
		{
			"bufferView":33,
			"componentType":5126,
			"count":5,
			"type":"VEC3"
		},
		{
			"bufferView":34,
			"componentType":5126,
			"count":5,
			"type":"VEC4"
		},
		{
			"bufferView":35,
			"componentType":5126,
			"count":5,
			"type":"VEC3"
		},
		{
			"bufferView":36,
			"componentType":5126,
			"count":5,
			"type":"VEC3"
		},
		{
			"bufferView":37,
			"componentType":5126,
			"count":5,
			"type":"VEC4"
		},
		{
			"bufferView":38,
			"componentType":5126,
			"count":5,
			"type":"VEC3"
		},
		{
			"bufferView":39,
			"componentType":5126,
			"count":5,
			"type":"VEC3"
		},
		{
			"bufferView":40,
			"componentType":5126,
			"count":5,
			"type":"VEC4"
		},
		{
			"bufferView":41,
			"componentType":5126,
			"count":5,
			"type":"VEC3"
		},
		{
			"bufferView":42,
			"componentType":5126,
			"count":5,
			"type":"VEC3"
		},
		{
			"bufferView":43,
			"componentType":5126,
			"count":5,
			"type":"VEC4"
		},
		{
			"bufferView":44,
			"componentType":5126,
			"count":5,
			"type":"VEC3"
		},
		{
			"bufferView":45,
			"componentType":5126,
			"count":5,
			"type":"VEC3"
		},
		{
			"bufferView":46,
			"componentType":5126,
			"count":5,
			"type":"VEC4"
		},
		{
			"bufferView":47,
			"componentType":5126,
			"count":5,
			"type":"VEC3"
		}
	],
	"bufferViews":[
		{
			"buffer":0,
			"byteLength":2676,
			"byteOffset":0,
			"target":34962
		},
		{
			"buffer":0,
			"byteLength":2676,
			"byteOffset":2676,
			"target":34962
		},
		{
			"buffer":0,
			"byteLength":892,
			"byteOffset":5352,
			"target":34962
		},
		{
			"buffer":0,
			"byteLength":3568,
			"byteOffset":6244,
			"target":34962
		},
		{
			"buffer":0,
			"byteLength":2496,
			"byteOffset":9812,
			"target":34963
		},
		{
			"buffer":0,
			"byteLength":448,
			"byteOffset":12308
		},
		{
			"buffer":0,
			"byteLength":600,
			"byteOffset":12756,
			"target":34962
		},
		{
			"buffer":0,
			"byteLength":600,
			"byteOffset":13356,
			"target":34962
		},
		{
			"buffer":0,
			"byteLength":200,
			"byteOffset":13956,
			"target":34962
		},
		{
			"buffer":0,
			"byteLength":800,
			"byteOffset":14156,
			"target":34962
		},
		{
			"buffer":0,
			"byteLength":480,
			"byteOffset":14956,
			"target":34963
		},
		{
			"buffer":0,
			"byteLength":20,
			"byteOffset":15436
		},
		{
			"buffer":0,
			"byteLength":60,
			"byteOffset":15456
		},
		{
			"buffer":0,
			"byteLength":80,
			"byteOffset":15516
		},
		{
			"buffer":0,
			"byteLength":60,
			"byteOffset":15596
		},
		{
			"buffer":0,
			"byteLength":60,
			"byteOffset":15656
		},
		{
			"buffer":0,
			"byteLength":80,
			"byteOffset":15716
		},
		{
			"buffer":0,
			"byteLength":60,
			"byteOffset":15796
		},
		{
			"buffer":0,
			"byteLength":60,
			"byteOffset":15856
		},
		{
			"buffer":0,
			"byteLength":80,
			"byteOffset":15916
		},
		{
			"buffer":0,
			"byteLength":60,
			"byteOffset":15996
		},
		{
			"buffer":0,
			"byteLength":60,
			"byteOffset":16056
		},
		{
			"buffer":0,
			"byteLength":80,
			"byteOffset":16116
		},
		{
			"buffer":0,
			"byteLength":60,
			"byteOffset":16196
		},
		{
			"buffer":0,
			"byteLength":60,
			"byteOffset":16256
		},
		{
			"buffer":0,
			"byteLength":80,
			"byteOffset":16316
		},
		{
			"buffer":0,
			"byteLength":60,
			"byteOffset":16396
		},
		{
			"buffer":0,
			"byteLength":60,
			"byteOffset":16456
		},
		{
			"buffer":0,
			"byteLength":80,
			"byteOffset":16516
		},
		{
			"buffer":0,
			"byteLength":60,
			"byteOffset":16596
		},
		{
			"buffer":0,
			"byteLength":60,
			"byteOffset":16656
		},
		{
			"buffer":0,
			"byteLength":80,
			"byteOffset":16716
		},
		{
			"buffer":0,
			"byteLength":60,
			"byteOffset":16796
		},
		{
			"buffer":0,
			"byteLength":60,
			"byteOffset":16856
		},
		{
			"buffer":0,
			"byteLength":80,
			"byteOffset":16916
		},
		{
			"buffer":0,
			"byteLength":60,
			"byteOffset":16996
		},
		{
			"buffer":0,
			"byteLength":60,
			"byteOffset":17056
		},
		{
			"buffer":0,
			"byteLength":80,
			"byteOffset":17116
		},
		{
			"buffer":0,
			"byteLength":60,
			"byteOffset":17196
		},
		{
			"buffer":0,
			"byteLength":60,
			"byteOffset":17256
		},
		{
			"buffer":0,
			"byteLength":80,
			"byteOffset":17316
		},
		{
			"buffer":0,
			"byteLength":60,
			"byteOffset":17396
		},
		{
			"buffer":0,
			"byteLength":60,
			"byteOffset":17456
		},
		{
			"buffer":0,
			"byteLength":80,
			"byteOffset":17516
		},
		{
			"buffer":0,
			"byteLength":60,
			"byteOffset":17596
		},
		{
			"buffer":0,
			"byteLength":60,
			"byteOffset":17656
		},
		{
			"buffer":0,
			"byteLength":80,
			"byteOffset":17716
		},
		{
			"buffer":0,
			"byteLength":60,
			"byteOffset":17796
		}
	],
	"buffers":[
		{
			"byteLength":17856,
			"uri":"data:application/octet-stream;base64,"
		}
	]
}
